<svg xmlns="http://www.w3.org/2000/svg" width="257.982" height="348.91" viewBox="0 0 257.982 348.91">
  <g id="Logo" transform="translate(-131.545 -356.045)">
    <g id="Componente_26_3" data-name="Componente 26 – 3" transform="translate(131.545 356.045)">
      <g id="Metria_Color" data-name="Metria Color" transform="translate(18.452 24.955)">
        <path id="Trazado_2873" data-name="Trazado 2873" d="M157.649,1029.824a6.263,6.263,0,0,1-1.489,2.04,6.606,6.606,0,0,1-2.121,1.28,6.93,6.93,0,0,1-2.456.447,6.764,6.764,0,0,1-1.772-.218,6.39,6.39,0,0,1-1.45-.579,6.126,6.126,0,0,1-1.168-.844,7.615,7.615,0,0,1-.925-1.015v6.249H144.2v-16.339h2.068v2.509a9.943,9.943,0,0,1,.953-1.062,5.948,5.948,0,0,1,1.168-.88,6.458,6.458,0,0,1,1.436-.6,6.282,6.282,0,0,1,1.758-.229,7.1,7.1,0,0,1,2.431.433,6.578,6.578,0,0,1,2.135,1.269,6.18,6.18,0,0,1,1.5,2.04,6.971,6.971,0,0,1,0,5.5m-1.945-4.72a4.657,4.657,0,0,0-1.062-1.526,4.607,4.607,0,0,0-1.556-.973,5.271,5.271,0,0,0-1.881-.335,5.145,5.145,0,0,0-1.867.349,5.341,5.341,0,0,0-1.612.972,4.538,4.538,0,0,0-1.545,3.482,4.636,4.636,0,0,0,.416,1.981,4.507,4.507,0,0,0,1.129,1.525,5.34,5.34,0,0,0,1.612.973,5.141,5.141,0,0,0,1.867.349,5.509,5.509,0,0,0,1.895-.324,4.352,4.352,0,0,0,2.6-2.448,5.062,5.062,0,0,0,.388-2.029,4.92,4.92,0,0,0-.388-2" transform="translate(-144.2 -738.184)" fill="#2a91c4"/>
        <path id="Trazado_2874" data-name="Trazado 2874" d="M207.595,1029.569a4.462,4.462,0,0,0,1.1,1.328,4.8,4.8,0,0,0,1.5.821,5.51,5.51,0,0,0,1.746.277,5.842,5.842,0,0,0,2.484-.484,7.371,7.371,0,0,0,1.895-1.28l1.288,1.036a8.468,8.468,0,0,1-2.389,1.7,7.745,7.745,0,0,1-3.331.64,7.636,7.636,0,0,1-2.685-.469,6.764,6.764,0,0,1-2.208-1.327,6.264,6.264,0,0,1-2.06-4.717,6.543,6.543,0,0,1,.5-2.546,6.287,6.287,0,0,1,1.383-2.076,6.511,6.511,0,0,1,2.107-1.389,7.391,7.391,0,0,1,5.41.014,5.964,5.964,0,0,1,2.04,1.411,6.034,6.034,0,0,1,1.263,2.1,7.678,7.678,0,0,1,.43,2.582v.265a1.8,1.8,0,0,1-.028.313H207.061a4.629,4.629,0,0,0,.534,1.8m8.35-3.172a5.805,5.805,0,0,0-.388-1.618,4.219,4.219,0,0,0-.855-1.352,4.075,4.075,0,0,0-1.336-.928,4.49,4.49,0,0,0-1.828-.349,4.279,4.279,0,0,0-1.682.327,4.362,4.362,0,0,0-1.361.894,4.668,4.668,0,0,0-.961,1.339,5.22,5.22,0,0,0-.481,1.688Z" transform="translate(-187.967 -738.184)" fill="#2a91c4"/>
        <path id="Trazado_2875" data-name="Trazado 2875" d="M266.958,1033.315H264.89v-12.477h2.068v2.172a6.175,6.175,0,0,1,1.825-1.727,5.4,5.4,0,0,1,2.926-.713,6.428,6.428,0,0,1,2.244.363,4.7,4.7,0,0,1,1.665,1.026,4.5,4.5,0,0,1,1.048,1.582,5.448,5.448,0,0,1,.363,2.029v7.746h-2.068v-7.288a3.756,3.756,0,0,0-.995-2.75,3.808,3.808,0,0,0-2.847-1.014,4.827,4.827,0,0,0-1.652.277,3.886,3.886,0,0,0-1.33.8,3.56,3.56,0,0,0-.872,1.244,4.006,4.006,0,0,0-.307,1.593Z" transform="translate(-231.165 -738.177)" fill="#2a91c4"/>
        <path id="Trazado_2876" data-name="Trazado 2876" d="M330.25,1031.535a3.7,3.7,0,0,1-1.048,1.171,4.8,4.8,0,0,1-1.556.735,7.113,7.113,0,0,1-1.948.255,10.32,10.32,0,0,1-5.748-1.833l1.048-1.327a9.321,9.321,0,0,0,2.35,1.182,7.659,7.659,0,0,0,2.456.411,3.68,3.68,0,0,0,2.068-.531,1.65,1.65,0,0,0,.8-1.448v-.047a1.213,1.213,0,0,0-.282-.8,2.494,2.494,0,0,0-.766-.592,6.526,6.526,0,0,0-1.115-.447c-.422-.128-.855-.248-1.3-.363q-.8-.218-1.626-.469a7.1,7.1,0,0,1-1.475-.64,3.452,3.452,0,0,1-1.076-.967,2.423,2.423,0,0,1-.416-1.448v-.047a3.088,3.088,0,0,1,.349-1.458,3.332,3.332,0,0,1,.981-1.134,4.664,4.664,0,0,1,1.5-.724,6.709,6.709,0,0,1,1.895-.254,9.524,9.524,0,0,1,2.6.375,10.33,10.33,0,0,1,2.389,1l-.939,1.4a9.962,9.962,0,0,0-2.029-.88,7.026,7.026,0,0,0-2.082-.324,3.3,3.3,0,0,0-1.959.52,1.541,1.541,0,0,0-.724,1.291v.047a1.09,1.09,0,0,0,.3.76,2.57,2.57,0,0,0,.791.567,7.241,7.241,0,0,0,1.143.433q.646.192,1.341.386.8.218,1.6.483a6.5,6.5,0,0,1,1.436.676,3.478,3.478,0,0,1,1.034.99,2.492,2.492,0,0,1,.388,1.425v.047a3.118,3.118,0,0,1-.386,1.579" transform="translate(-270.839 -738.314)" fill="#2a91c4"/>
        <path id="Trazado_2877" data-name="Trazado 2877" d="M372.018,1022.825a13.185,13.185,0,0,0-1.973.665l-.618-1.52a14.759,14.759,0,0,1,2.336-.76,11.966,11.966,0,0,1,2.713-.28,6.681,6.681,0,0,1,4.376,1.269,4.593,4.593,0,0,1,1.531,3.753v7.626H378.4v-1.883a6.648,6.648,0,0,1-1.948,1.5,6.51,6.51,0,0,1-3.077.651,7.426,7.426,0,0,1-1.892-.243,5.38,5.38,0,0,1-1.665-.735,3.928,3.928,0,0,1-1.182-1.219,3.211,3.211,0,0,1-.444-1.713,3.476,3.476,0,0,1,.43-1.749,3.618,3.618,0,0,1,1.221-1.266,6.22,6.22,0,0,1,1.881-.774,10.175,10.175,0,0,1,2.4-.266,16.239,16.239,0,0,1,2.336.146,19.229,19.229,0,0,1,1.934.385v-.433a3.046,3.046,0,0,0-1.087-2.546,4.82,4.82,0,0,0-3.049-.855,8.856,8.856,0,0,0-2.241.249m-.659,5.128a2.182,2.182,0,0,0-1.045,1.906,1.99,1.99,0,0,0,.282,1.062,2.58,2.58,0,0,0,.763.785,3.606,3.606,0,0,0,1.112.495,5.129,5.129,0,0,0,1.325.168,6.183,6.183,0,0,0,1.805-.254,5.039,5.039,0,0,0,1.473-.7,3.428,3.428,0,0,0,.989-1.062,2.647,2.647,0,0,0,.361-1.364v-1.207c-.517-.128-1.112-.249-1.78-.363a13.986,13.986,0,0,0-2.289-.168,5.4,5.4,0,0,0-3,.7" transform="translate(-305.598 -738.437)" fill="#2a91c4"/>
        <path id="Trazado_2878" data-name="Trazado 2878" d="M429.658,1033.315H427.59v-12.477h2.068v2.172a6.176,6.176,0,0,1,1.825-1.727,5.4,5.4,0,0,1,2.926-.713,6.428,6.428,0,0,1,2.244.363,4.7,4.7,0,0,1,1.665,1.026,4.5,4.5,0,0,1,1.048,1.582,5.45,5.45,0,0,1,.363,2.029v7.746h-2.068v-7.288a3.756,3.756,0,0,0-.995-2.75,3.808,3.808,0,0,0-2.848-1.014,4.827,4.827,0,0,0-1.651.277,3.886,3.886,0,0,0-1.33.8,3.562,3.562,0,0,0-.872,1.244,4.007,4.007,0,0,0-.307,1.593Z" transform="translate(-348.4 -738.177)" fill="#2a91c4"/>
        <path id="Trazado_2879" data-name="Trazado 2879" d="M495.852,1020.756v-2.509a10.237,10.237,0,0,1-.953,1.062,6.373,6.373,0,0,1-1.168.894,5.761,5.761,0,0,1-1.436.6,6.624,6.624,0,0,1-1.761.218,7.077,7.077,0,0,1-2.445-.433,6.6,6.6,0,0,1-2.121-1.269,6.178,6.178,0,0,1-1.5-2.04,6.986,6.986,0,0,1,0-5.5,6.178,6.178,0,0,1,1.5-2.04,7,7,0,0,1,6.338-1.509,6.381,6.381,0,0,1,1.45.578,6.133,6.133,0,0,1,1.168.844,7.611,7.611,0,0,1,.925,1.014v-7.528h2.068v17.616Zm-.335-8.218a4.54,4.54,0,0,0-1.129-1.512,5.347,5.347,0,0,0-1.612-.973,5.137,5.137,0,0,0-1.867-.349,5.515,5.515,0,0,0-1.906.324,4.378,4.378,0,0,0-2.59,2.448,5.059,5.059,0,0,0-.389,2.029,4.9,4.9,0,0,0,.389,1.992,4.6,4.6,0,0,0,2.618,2.5,5.271,5.271,0,0,0,1.881.335,5.079,5.079,0,0,0,1.867-.349,5.349,5.349,0,0,0,1.612-.972,4.55,4.55,0,0,0,1.129-1.526,4.868,4.868,0,0,0,0-3.946" transform="translate(-388.975 -725.618)" fill="#2a91c4"/>
        <path id="Trazado_2880" data-name="Trazado 2880" d="M561.452,1029.594a6.51,6.51,0,0,1-1.517,2.088,7.2,7.2,0,0,1-2.308,1.411,7.973,7.973,0,0,1-2.9.52,7.75,7.75,0,0,1-2.873-.52,7.389,7.389,0,0,1-2.283-1.4,6.246,6.246,0,0,1-1.5-2.062,6.006,6.006,0,0,1-.537-2.509,6.1,6.1,0,0,1,.537-2.523,6.386,6.386,0,0,1,1.5-2.088,7.173,7.173,0,0,1,2.3-1.411,8.353,8.353,0,0,1,5.8,0,7.36,7.36,0,0,1,2.3,1.4,6.286,6.286,0,0,1,1.5,2.063,6.082,6.082,0,0,1-.017,5.032m-1.962-4.387a4.744,4.744,0,0,0-1.087-1.554,5.235,5.235,0,0,0-1.638-1.048,5.322,5.322,0,0,0-2.04-.386,5.558,5.558,0,0,0-2.068.374,4.633,4.633,0,0,0-1.6,1.034,4.925,4.925,0,0,0-1.034,1.54,4.9,4.9,0,0,0,.014,3.792,4.684,4.684,0,0,0,1.073,1.54,5.188,5.188,0,0,0,1.624,1.034,5.328,5.328,0,0,0,2.043.386,5.567,5.567,0,0,0,2.068-.372,4.867,4.867,0,0,0,1.609-1.023,4.81,4.81,0,0,0,1.034-5.318" transform="translate(-434.824 -738.185)" fill="#2a91c4"/>
        <path id="Trazado_2881" data-name="Trazado 2881" d="M641.095,1029.569a4.462,4.462,0,0,0,1.1,1.328,4.8,4.8,0,0,0,1.5.821,5.512,5.512,0,0,0,1.747.277,5.841,5.841,0,0,0,2.484-.484,7.372,7.372,0,0,0,1.895-1.28l1.288,1.036a8.468,8.468,0,0,1-2.389,1.7,7.746,7.746,0,0,1-3.331.64,7.635,7.635,0,0,1-2.685-.469,6.766,6.766,0,0,1-2.208-1.327,6.265,6.265,0,0,1-2.059-4.717,6.54,6.54,0,0,1,.5-2.546,6.287,6.287,0,0,1,1.383-2.076,6.513,6.513,0,0,1,2.107-1.389,7.391,7.391,0,0,1,5.41.014,5.962,5.962,0,0,1,2.04,1.411,6.036,6.036,0,0,1,1.263,2.1,7.68,7.68,0,0,1,.43,2.582v.265a1.813,1.813,0,0,1-.028.313H640.561a4.726,4.726,0,0,0,.534,1.8m8.352-3.172a5.8,5.8,0,0,0-.388-1.618,4.218,4.218,0,0,0-.855-1.352,4.074,4.074,0,0,0-1.336-.928,4.49,4.49,0,0,0-1.827-.349,4.279,4.279,0,0,0-1.682.327,4.364,4.364,0,0,0-1.361.894,4.664,4.664,0,0,0-.961,1.339,5.216,5.216,0,0,0-.481,1.688Z" transform="translate(-500.33 -738.184)" fill="#2a91c4"/>
        <path id="Trazado_2882" data-name="Trazado 2882" d="M700.468,1033.315H698.4v-12.477h2.068v2.172a6.176,6.176,0,0,1,1.825-1.727,5.4,5.4,0,0,1,2.926-.713,6.428,6.428,0,0,1,2.244.363,4.7,4.7,0,0,1,1.665,1.026,4.5,4.5,0,0,1,1.048,1.582,5.449,5.449,0,0,1,.363,2.029v7.746h-2.068v-7.288a3.756,3.756,0,0,0-.995-2.75,3.807,3.807,0,0,0-2.847-1.014,4.827,4.827,0,0,0-1.652.277,3.886,3.886,0,0,0-1.33.8,3.558,3.558,0,0,0-.872,1.244,4,4,0,0,0-.308,1.593Z" transform="translate(-543.535 -738.177)" fill="#2a91c4"/>
        <path id="Trazado_2883" data-name="Trazado 2883" d="M790.75,1008.067v1.593h-4.376V1020.5h-2.068V1009.66H782.4v-1.618h1.906v-1.087a4.163,4.163,0,0,1,1.087-3.113,4.255,4.255,0,0,1,3.1-1.062,9.4,9.4,0,0,1,1.249.073,5.594,5.594,0,0,1,1.034.243v1.618c-.375-.1-.715-.173-1.02-.229a5.514,5.514,0,0,0-.995-.084q-2.419,0-2.417,2.655v1.014h4.4Z" transform="translate(-604.062 -725.359)" fill="#2a91c4"/>
        <path id="Trazado_2884" data-name="Trazado 2884" d="M823.758,1033.432H821.69v-12.477h2.068v3.258a6.582,6.582,0,0,1,.939-1.425,6.111,6.111,0,0,1,1.288-1.123,5.81,5.81,0,0,1,1.584-.713,6.2,6.2,0,0,1,1.853-.218v2h-.162a6.216,6.216,0,0,0-2.135.363,4.89,4.89,0,0,0-1.758,1.084,5.11,5.11,0,0,0-1.182,1.8,6.6,6.6,0,0,0-.43,2.473v4.977Z" transform="translate(-632.373 -738.294)" fill="#2a91c4"/>
        <path id="Trazado_2885" data-name="Trazado 2885" d="M861.29,1007.659h2.068v12.477H861.29Zm.215-1.881,2.551-3.5,2.149.894-3.035,2.607h-1.666Z" transform="translate(-660.907 -724.999)" fill="#2a91c4"/>
        <path id="Trazado_2886" data-name="Trazado 2886" d="M896.742,1029.594a6.511,6.511,0,0,1-1.517,2.088,7.2,7.2,0,0,1-2.308,1.411,7.986,7.986,0,0,1-2.9.52,7.75,7.75,0,0,1-2.873-.52,7.388,7.388,0,0,1-2.283-1.4,6.286,6.286,0,0,1-1.5-2.062,6.008,6.008,0,0,1-.536-2.509,6.1,6.1,0,0,1,.536-2.523,6.387,6.387,0,0,1,1.5-2.088,7.231,7.231,0,0,1,2.3-1.411,8.353,8.353,0,0,1,5.8,0,7.357,7.357,0,0,1,2.3,1.4,6.286,6.286,0,0,1,1.5,2.063,6.081,6.081,0,0,1-.017,5.032m-1.959-4.387a4.743,4.743,0,0,0-1.087-1.554,5.239,5.239,0,0,0-1.638-1.048,5.323,5.323,0,0,0-2.04-.386,5.559,5.559,0,0,0-2.068.374,4.607,4.607,0,0,0-1.6,1.034,4.93,4.93,0,0,0-1.034,1.54,4.9,4.9,0,0,0,.014,3.792,4.679,4.679,0,0,0,1.073,1.54,5.192,5.192,0,0,0,1.623,1.034,5.33,5.33,0,0,0,2.043.386,5.567,5.567,0,0,0,2.068-.372,4.869,4.869,0,0,0,1.61-1.023,4.712,4.712,0,0,0,1.425-3.417,4.771,4.771,0,0,0-.391-1.9" transform="translate(-676.421 -738.185)" fill="#2a91c4"/>
        <path id="Trazado_2887" data-name="Trazado 2887" d="M169.076,806.247h-.288L153.1,781.159V819.4H144.36V765.86h9.386L169,791.18l15.257-25.32h9.386V819.4h-8.741v-38.4Z" transform="translate(-144.315 -554.643)" fill="#b8338c"/>
        <path id="Trazado_2888" data-name="Trazado 2888" d="M368.26,841.867a10.343,10.343,0,0,0,7.165,2.638,12.009,12.009,0,0,0,5.589-1.224,18.278,18.278,0,0,0,4.655-3.594l5.086,4.818a21.273,21.273,0,0,1-6.483,5.508,18.4,18.4,0,0,1-8.99,2.065,19.05,19.05,0,0,1-7.629-1.531,18.519,18.519,0,0,1-6.162-4.284,20.033,20.033,0,0,1-4.119-6.617,23.521,23.521,0,0,1-1.5-8.6,24.225,24.225,0,0,1,1.361-8.185,20.809,20.809,0,0,1,3.831-6.692,18.679,18.679,0,0,1,5.837-4.552,16.44,16.44,0,0,1,7.45-1.682,17,17,0,0,1,7.917,1.76,16.47,16.47,0,0,1,5.659,4.742,21.148,21.148,0,0,1,3.4,6.961,30.021,30.021,0,0,1,1.146,8.338c0,.408-.011.816-.036,1.224s-.062.841-.106,1.3h-27.8a12.465,12.465,0,0,0,3.725,7.612m15.615-13.731a16.826,16.826,0,0,0-.931-4.169,10.87,10.87,0,0,0-1.934-3.364,9.349,9.349,0,0,0-2.9-2.258,9,9,0,0,0-10.457,2.1,13.745,13.745,0,0,0-3.188,7.688Z" transform="translate(-296.721 -586.398)" fill="#b8338c"/>
        <path id="Trazado_2889" data-name="Trazado 2889" d="M521.413,812.113a5.161,5.161,0,0,0,1.246,3.876,4.884,4.884,0,0,0,3.518,1.19,11.7,11.7,0,0,0,5.494-1.378v7.573a15.087,15.087,0,0,1-3.591,1.531,16.282,16.282,0,0,1-4.4.536,15.755,15.755,0,0,1-4.488-.612,9.045,9.045,0,0,1-3.582-1.992,8.864,8.864,0,0,1-2.325-3.641,16.817,16.817,0,0,1-.813-5.636V792.248H507.57v-7.877h4.907V773.28h8.939v11.091h10.4v7.877h-10.4v19.865Z" transform="translate(-406.03 -559.99)" fill="#2a91c4"/>
        <path id="Trazado_2890" data-name="Trazado 2890" d="M635.9,851.314H626.69V810.93H635.9v9.1a17.754,17.754,0,0,1,5.363-7.344,12.729,12.729,0,0,1,8.763-2.523v9.792H649.5a14.766,14.766,0,0,0-5.513.995,11.547,11.547,0,0,0-4.306,2.982,13.538,13.538,0,0,0-2.794,5.01,22.689,22.689,0,0,0-.981,7v15.375Z" transform="translate(-491.863 -586.554)" fill="#2a91c4"/>
        <path id="Trazado_2891" data-name="Trazado 2891" d="M740.2,767.379h9.216v40.387H740.2Zm.679-5.125,8.006-12.544,8.308,3.747-9.216,8.8Z" transform="translate(-573.654 -543.006)" fill="#2a91c4"/>
        <path id="Trazado_2892" data-name="Trazado 2892" d="M832.994,851.749v-4.971a17.067,17.067,0,0,1-5.211,4.13,16.277,16.277,0,0,1-7.7,1.682,18.159,18.159,0,0,1-5.438-.8,13.285,13.285,0,0,1-4.493-2.37,11.713,11.713,0,0,1-3.1-3.9,11.849,11.849,0,0,1-1.171-5.393v-.154a12.833,12.833,0,0,1,1.207-5.737,11.126,11.126,0,0,1,3.362-4.055,14.972,14.972,0,0,1,5.136-2.409,24.846,24.846,0,0,1,6.458-.8,35.3,35.3,0,0,1,6.156.458,37.288,37.288,0,0,1,4.871,1.224v-.995a8.086,8.086,0,0,0-2.532-6.424q-2.532-2.217-7.288-2.219a24.069,24.069,0,0,0-6.041.687,38.917,38.917,0,0,0-5.363,1.836l-2.492-7.419a41.736,41.736,0,0,1,6.8-2.448,33.209,33.209,0,0,1,8.383-.919q8.911,0,13.217,4.477t4.306,12.583v23.942h-9.065Zm.229-17.132a23.175,23.175,0,0,0-4.116-1.146,26.365,26.365,0,0,0-5.021-.458,11.644,11.644,0,0,0-6.723,1.682,5.52,5.52,0,0,0-2.417,4.82v.154a5.05,5.05,0,0,0,2.227,4.438,9.44,9.44,0,0,0,5.474,1.529,13.762,13.762,0,0,0,4.192-.612A10.8,10.8,0,0,0,830.2,843.3a7.794,7.794,0,0,0,2.227-2.677,7.6,7.6,0,0,0,.794-3.479v-2.529Z" transform="translate(-620.981 -586.989)" fill="#2a91c4"/>
        <path id="Trazado_2893" data-name="Trazado 2893" d="M299.48,83.509V10H274.844v0l-7.26,0H263.2l-3.971,3.988,1.47,1.439,20.17,19.748-3.454,3.39L257.128,18.83l-1.322-1.285L218.535,54.579l2.842,2.881.006-.006,18.485,18.01,11.493-11.34,3.278,3.194-11.4,11.11-.958.933-2.674,2.607-1.646-1.632L217.8,60.925l-2.792-2.834L212.06,60.95l.011,3.767-.011-.006v72.914l.042-.022.14,4.736,2.588,2.736,2.94-2.889,0,0L236.1,124.2l3.985-3.979,3.711,3.739L255.39,135.27l-3.378,3.364L239.73,126.682l-19.063,18.647-2.744,2.744,37.73,37.534,1.414-1.383,20.463-20.276,3.216,3.135L260.2,187.229l-1.543,1.4,4.457,4.426h2.518l0,.008,16.2-.006,0-.008,17.661.014V119.5l-10.828,10.454-3.233-3.13,14.061-13.81V89.987l-14.3-13.936,3.37-3.267Z" transform="translate(-193.097 -10)" fill="#2a91c4"/>
        <path id="Trazado_2894" data-name="Trazado 2894" d="M556.06,83.509V10h24.714v0l7.282,0h4.4l3.985,3.988-1.475,1.439L574.729,35.175l3.465,3.39L598.549,18.83l1.325-1.285,37.392,37.034-2.85,2.881-.006-.006-18.546,18.01-11.53-11.34-3.289,3.194,11.435,11.11.961.933,2.68,2.607,1.654-1.632,20.231-19.413,2.8-2.834,2.954,2.859-.008,3.767.008-.006v72.914l-.042-.022-.14,4.736-2.6,2.736-2.951-2.889.006,0-18.4-17.985-4-3.979-3.722,3.739-11.63,11.312,3.39,3.364L616,126.682l19.125,18.647,2.755,2.744-37.856,37.534-1.417-1.383-20.53-20.276-3.227,3.135,20.614,20.145,1.551,1.4-4.474,4.426H590.02l0,.008-16.249-.006,0-.008-17.716.014V119.5l10.862,10.454,3.242-3.13-14.1-13.81V89.987l14.349-13.936-3.381-3.267Z" transform="translate(-440.97 -10)" fill="#b8338c"/>
      </g>
    </g>
  </g>
</svg>
