<svg id="Metria_Color" data-name="Metria Color" xmlns="http://www.w3.org/2000/svg" width="191.908" height="76" viewBox="0 0 191.908 76">
  <path id="Trazado_2863" data-name="Trazado 2863" d="M154.621,782.627h-.12l-6.513-10.415v15.877H144.36V765.86h3.9l6.334,10.512,6.334-10.512h3.9v22.228h-3.629V772.148Z" transform="translate(-44.214 -739.173)" fill="#b8338c"/>
  <path id="Trazado_2864" data-name="Trazado 2864" d="M361.014,823.189a4.294,4.294,0,0,0,2.974,1.1,4.984,4.984,0,0,0,2.32-.508,7.589,7.589,0,0,0,1.933-1.492l2.111,2a8.832,8.832,0,0,1-2.691,2.287,7.641,7.641,0,0,1-3.732.857,7.908,7.908,0,0,1-3.167-.636,7.689,7.689,0,0,1-2.558-1.778,8.316,8.316,0,0,1-1.71-2.747,9.766,9.766,0,0,1-.624-3.572,10.057,10.057,0,0,1,.565-3.4,8.641,8.641,0,0,1,1.591-2.778,7.753,7.753,0,0,1,2.423-1.89,6.825,6.825,0,0,1,3.093-.7,7.056,7.056,0,0,1,3.287.731,6.838,6.838,0,0,1,2.349,1.969,8.779,8.779,0,0,1,1.413,2.89,12.462,12.462,0,0,1,.476,3.462c0,.169,0,.339-.015.508s-.026.349-.044.539H359.467a5.176,5.176,0,0,0,1.546,3.16m6.483-5.7a6.979,6.979,0,0,0-.386-1.731,4.511,4.511,0,0,0-.8-1.4,3.88,3.88,0,0,0-1.2-.937,3.736,3.736,0,0,0-4.341.873,5.706,5.706,0,0,0-1.324,3.192Z" transform="translate(-231.187 -778.131)" fill="#b8338c"/>
  <path id="Trazado_2865" data-name="Trazado 2865" d="M513.317,789.4a2.143,2.143,0,0,0,.517,1.609,2.028,2.028,0,0,0,1.461.494,4.857,4.857,0,0,0,2.281-.572v3.144a6.263,6.263,0,0,1-1.491.636,6.759,6.759,0,0,1-1.825.223,6.538,6.538,0,0,1-1.863-.254,3.754,3.754,0,0,1-1.487-.827,3.681,3.681,0,0,1-.965-1.512,6.981,6.981,0,0,1-.338-2.34v-8.848H507.57v-3.27h2.037v-4.6h3.711v4.6h4.319v3.27h-4.319V789.4Z" transform="translate(-365.288 -745.732)" fill="#2a91c4"/>
  <path id="Trazado_2866" data-name="Trazado 2866" d="M630.515,827.237H626.69V810.471h3.825v3.778a7.371,7.371,0,0,1,2.226-3.049,5.285,5.285,0,0,1,3.638-1.048v4.065h-.219a6.13,6.13,0,0,0-2.289.413,4.8,4.8,0,0,0-1.788,1.238,5.619,5.619,0,0,0-1.16,2.08,9.418,9.418,0,0,0-.407,2.9v6.383Z" transform="translate(-470.589 -778.322)" fill="#2a91c4"/>
  <path id="Trazado_2867" data-name="Trazado 2867" d="M740.2,757.045h3.826v16.767H740.2Zm.282-2.128,3.324-5.208,3.449,1.556-3.826,3.652Z" transform="translate(-570.931 -724.897)" fill="#2a91c4"/>
  <path id="Trazado_2868" data-name="Trazado 2868" d="M817.136,827.771v-2.064a7.088,7.088,0,0,1-2.164,1.715,6.758,6.758,0,0,1-3.2.7,7.536,7.536,0,0,1-2.258-.333,5.514,5.514,0,0,1-1.865-.984,4.86,4.86,0,0,1-1.285-1.62,4.918,4.918,0,0,1-.486-2.239v-.064a5.328,5.328,0,0,1,.5-2.382,4.621,4.621,0,0,1,1.4-1.683,6.216,6.216,0,0,1,2.132-1,10.318,10.318,0,0,1,2.681-.333,14.654,14.654,0,0,1,2.556.19,15.45,15.45,0,0,1,2.022.508v-.413a3.357,3.357,0,0,0-1.051-2.667,4.455,4.455,0,0,0-3.026-.921,9.992,9.992,0,0,0-2.508.285,16.187,16.187,0,0,0-2.226.762l-1.035-3.08a17.319,17.319,0,0,1,2.822-1.016,13.781,13.781,0,0,1,3.48-.382q3.7,0,5.487,1.858a7.226,7.226,0,0,1,1.788,5.224v9.94h-3.763Zm.1-7.112a9.608,9.608,0,0,0-1.709-.476,10.949,10.949,0,0,0-2.085-.19,4.834,4.834,0,0,0-2.791.7,2.291,2.291,0,0,0-1,2v.064a2.1,2.1,0,0,0,.925,1.842,3.919,3.919,0,0,0,2.273.635,5.709,5.709,0,0,0,1.74-.254,4.479,4.479,0,0,0,1.4-.715,3.234,3.234,0,0,0,.925-1.112,3.155,3.155,0,0,0,.33-1.444v-1.05Z" transform="translate(-628.991 -778.856)" fill="#2a91c4"/>
  <path id="Trazado_2869" data-name="Trazado 2869" d="M248.352,40.517V10H233.291l-1.648,1.655.61.6,8.374,8.2-1.434,1.407-8.422-8.193-.549-.534L214.748,28.507l1.18,1.2,0,0,7.674,7.477,4.771-4.708,1.361,1.326-4.731,4.613-.4.387-1.11,1.082-.683-.677-8.372-8.059-1.159-1.176-1.223,1.187,0,1.564,0,0v30.27l.017-.009.058,1.966,1.074,1.136,1.22-1.2h0l7.611-7.466,1.654-1.652,1.541,1.552,4.813,4.7-1.4,1.4-5.1-4.962-7.914,7.741-1.139,1.139L230.157,82.9l.587-.574,8.5-8.418,1.335,1.3-8.531,8.363-.64.582L233.254,86H234.3v0l6.724,0v0l7.332.006V55.457l-4.5,4.34-1.342-1.3,5.838-5.733V43.206l-5.939-5.785,1.4-1.356Z" transform="translate(-212.06 -10)" fill="#2a91c4"/>
  <path id="Trazado_2870" data-name="Trazado 2870" d="M556.06,40.517V10h15.109l1.654,1.655-.613.6-8.4,8.2,1.438,1.407,8.45-8.193.55-.534,15.523,15.375-1.183,1.2,0,0-7.7,7.477L576.1,32.47,574.735,33.8l4.747,4.613.4.387,1.112,1.082.687-.677,8.4-8.059,1.164-1.176,1.226,1.187,0,1.564,0,0v30.27l-.017-.009-.058,1.966-1.078,1.136-1.225-1.2h0l-7.637-7.466-1.66-1.652-1.545,1.552-4.828,4.7,1.407,1.4,5.115-4.962,7.94,7.741,1.144,1.139L574.313,82.9l-.588-.574L565.2,73.912l-1.34,1.3,8.558,8.363.644.582L571.206,86h-1.047v0l-6.746,0v0L556.06,86V55.457l4.509,4.34,1.346-1.3-5.855-5.733V43.206l5.957-5.785-1.4-1.356Z" transform="translate(-516.153 -10)" fill="#b8338c"/>
</svg>
